<svg width="40" height="40" viewBox="0 0 40 40" fill="none" xmlns="http://www.w3.org/2000/svg">
<rect opacity="0.1" width="40" height="40" rx="20" fill="url(#paint0_linear_3848_10825)"/>
<path d="M19.3928 10.2841C19.2243 10.1156 18.9867 10.035 18.7508 10.0727C18.5157 10.1079 18.311 10.2529 18.1997 10.4635L13.4799 19.3793L10.9073 21.9515C10.1159 22.7436 9.87386 23.8683 10.1536 24.8768C9.2275 26.0531 9.29342 27.7607 10.3774 28.8462C10.9626 29.4307 11.7309 29.7229 12.4992 29.7229C13.1555 29.7229 13.8048 29.4962 14.3464 29.0696C14.606 29.1413 14.873 29.1912 15.1502 29.1912C15.6944 29.1912 16.2104 29.0377 16.666 28.77L18.5981 30.7018C18.9632 31.0673 19.4433 31.2496 19.9234 31.2496C20.4035 31.2496 20.884 31.0673 21.2495 30.7018C21.9804 29.9708 21.9804 28.7814 21.2495 28.0504L19.3932 26.1941L19.844 25.7433L28.7597 21.0228C28.9699 20.9115 29.115 20.7068 29.1508 20.4713C29.186 20.2362 29.1076 19.9978 28.9392 19.8297L19.3928 10.2841ZM11.4383 27.7853C11.0476 27.3942 10.9238 26.8408 11.0553 26.3413L12.8819 28.168C12.3828 28.2994 11.8294 28.176 11.4383 27.7853ZM20.1889 29.111C20.283 29.2051 20.2973 29.3175 20.2973 29.3761C20.2973 29.4347 20.283 29.5471 20.1893 29.6409C20.0457 29.7837 19.8029 29.7855 19.6587 29.6412L17.802 27.7853L18.3326 27.2546L20.1889 29.111ZM19.0427 24.4703C18.9764 24.5055 18.916 24.5498 18.8632 24.6029L16.2111 27.2546C15.6479 27.8179 14.6526 27.8175 14.0901 27.255L11.9682 25.1332C11.3838 24.5487 11.3838 23.5969 11.9682 23.0121L14.6203 20.36C14.6734 20.3072 14.7181 20.2468 14.7529 20.1805L19.0504 12.0627L27.1609 20.1725L19.0427 24.4703Z" fill="url(#paint1_linear_3848_10825)"/>
<path d="M23 11.7504C23.4146 11.7504 23.75 11.4146 23.75 11.0004V9.50037C23.75 9.08618 23.4146 8.75037 23 8.75037C22.5854 8.75037 22.25 9.08618 22.25 9.50037V11.0004C22.25 11.4146 22.5854 11.7504 23 11.7504Z" fill="url(#paint2_linear_3848_10825)"/>
<path d="M29.75 15.5H28.25C27.8354 15.5 27.5 15.8358 27.5 16.25C27.5 16.6642 27.8354 17 28.25 17H29.75C30.1646 17 30.5 16.6642 30.5 16.25C30.5 15.8358 30.1646 15.5 29.75 15.5Z" fill="url(#paint3_linear_3848_10825)"/>
<path d="M26 14C26.1919 14 26.3838 13.9268 26.5303 13.7803L28.0303 12.2803C28.3232 11.9873 28.3232 11.5127 28.0303 11.2197C27.7373 10.9268 27.2627 10.9268 26.9697 11.2197L25.4697 12.7197C25.1768 13.0127 25.1768 13.4873 25.4697 13.7803C25.6162 13.9268 25.8081 14 26 14Z" fill="url(#paint4_linear_3848_10825)"/>
<path d="M20.6437 25.3251L19.8413 25.7451L19.3912 26.1948L13.0312 19.8348L13.4813 19.3774L13.9014 18.5824L20.6437 25.3251Z" fill="url(#paint5_linear_3848_10825)"/>
<defs>
<linearGradient id="paint0_linear_3848_10825" x1="-4.36911" y1="3.63934" x2="35.5184" y2="38.8347" gradientUnits="userSpaceOnUse">
<stop stop-color="#0E76BC"/>
<stop offset="1" stop-color="#283891"/>
</linearGradient>
<linearGradient id="paint1_linear_3848_10825" x1="11.3872" y1="10.0636" x2="36.4659" y2="43.6294" gradientUnits="userSpaceOnUse">
<stop stop-color="#0E76BC"/>
<stop offset="1" stop-color="#283891"/>
</linearGradient>
<linearGradient id="paint2_linear_3848_10825" x1="22.3935" y1="8.75037" x2="25.9077" y2="11.2858" gradientUnits="userSpaceOnUse">
<stop stop-color="#0E76BC"/>
<stop offset="1" stop-color="#283891"/>
</linearGradient>
<linearGradient id="paint3_linear_3848_10825" x1="27.7869" y1="15.5" x2="28.9325" y2="18.8062" gradientUnits="userSpaceOnUse">
<stop stop-color="#0E76BC"/>
<stop offset="1" stop-color="#283891"/>
</linearGradient>
<linearGradient id="paint4_linear_3848_10825" x1="25.5369" y1="11" x2="29.0043" y2="16.0033" gradientUnits="userSpaceOnUse">
<stop stop-color="#0E76BC"/>
<stop offset="1" stop-color="#283891"/>
</linearGradient>
<linearGradient id="paint5_linear_3848_10825" x1="13.7593" y1="18.5824" x2="22.5577" y2="31.2781" gradientUnits="userSpaceOnUse">
<stop stop-color="#0E76BC"/>
<stop offset="1" stop-color="#283891"/>
</linearGradient>
</defs>
</svg>
