<svg width="40" height="40" viewBox="0 0 40 40" fill="none" xmlns="http://www.w3.org/2000/svg">
<rect opacity="0.12" width="40" height="40" rx="20" fill="#00BA00"/>
<path fill-rule="evenodd" clip-rule="evenodd" d="M20.004 11.255C24.8356 11.255 28.754 15.1734 28.754 20.0051C28.754 24.8367 24.8356 28.7551 20.004 28.7551C15.1723 28.7551 11.2539 24.8367 11.2539 20.0051C11.2539 15.1734 15.1723 11.255 20.004 11.255ZM18.1869 22.8471L16.0447 20.7031C15.6797 20.338 15.6796 19.7425 16.0447 19.3774C16.4098 19.0123 17.0079 19.0146 17.3704 19.3774L18.8807 20.8888L22.6377 17.1318C23.0028 16.7667 23.5983 16.7667 23.9634 17.1318C24.3285 17.4968 24.328 18.0929 23.9634 18.4575L19.5424 22.8784C19.1779 23.243 18.5818 23.2436 18.2167 22.8784C18.2065 22.8682 18.1966 22.8578 18.1869 22.8471Z" fill="#00BA00"/>
</svg>
