<svg width="20" height="20" viewBox="0 0 20 20" fill="none" xmlns="http://www.w3.org/2000/svg">
<path d="M11.0514 2.9999L4.20976 10.2416C3.95142 10.5166 3.70142 11.0582 3.65142 11.4332L3.34309 14.1332C3.23476 15.1082 3.93476 15.7749 4.90142 15.6082L7.58476 15.1499C7.95976 15.0832 8.48475 14.8082 8.74309 14.5249L15.5848 7.28323C16.7681 6.03323 17.3014 4.60823 15.4598 2.86656C13.6264 1.14156 12.2348 1.7499 11.0514 2.9999Z" stroke="#171717" stroke-miterlimit="10" stroke-linecap="round" stroke-linejoin="round"/>
<path d="M9.91016 4.20825C10.2685 6.50825 12.1352 8.26659 14.4518 8.49992L9.91016 4.20825Z" fill="#171717"/>
<path d="M9.91016 4.20825C10.2685 6.50825 12.1352 8.26659 14.4518 8.49992" stroke="#171717" stroke-miterlimit="10" stroke-linecap="round" stroke-linejoin="round"/>
</svg>
