<svg width="21" height="20" viewBox="0 0 21 20" fill="none" xmlns="http://www.w3.org/2000/svg">
<path d="M15.4531 8.95835C15.1115 8.95835 14.8281 8.67502 14.8281 8.33335V6.66669C14.8281 4.04169 14.0865 2.29169 10.4531 2.29169C6.81979 2.29169 6.07812 4.04169 6.07812 6.66669V8.33335C6.07812 8.67502 5.79479 8.95835 5.45312 8.95835C5.11146 8.95835 4.82812 8.67502 4.82812 8.33335V6.66669C4.82812 4.25002 5.41146 1.04169 10.4531 1.04169C15.4948 1.04169 16.0781 4.25002 16.0781 6.66669V8.33335C16.0781 8.67502 15.7948 8.95835 15.4531 8.95835Z" fill="#454748"/>
<path d="M10.4544 16.0417C8.96276 16.0417 7.74609 14.825 7.74609 13.3333C7.74609 11.8417 8.96276 10.625 10.4544 10.625C11.9461 10.625 13.1628 11.8417 13.1628 13.3333C13.1628 14.825 11.9461 16.0417 10.4544 16.0417ZM10.4544 11.875C9.65443 11.875 8.99609 12.5333 8.99609 13.3333C8.99609 14.1333 9.65443 14.7917 10.4544 14.7917C11.2544 14.7917 11.9128 14.1333 11.9128 13.3333C11.9128 12.5333 11.2544 11.875 10.4544 11.875Z" fill="#454748"/>
<path d="M14.6211 18.9583H6.28776C2.61276 18.9583 1.49609 17.8416 1.49609 14.1666V12.5C1.49609 8.82498 2.61276 7.70831 6.28776 7.70831H14.6211C18.2961 7.70831 19.4128 8.82498 19.4128 12.5V14.1666C19.4128 17.8416 18.2961 18.9583 14.6211 18.9583ZM6.28776 8.95831C3.30443 8.95831 2.74609 9.52498 2.74609 12.5V14.1666C2.74609 17.1416 3.30443 17.7083 6.28776 17.7083H14.6211C17.6044 17.7083 18.1628 17.1416 18.1628 14.1666V12.5C18.1628 9.52498 17.6044 8.95831 14.6211 8.95831H6.28776Z" fill="#0B0B0B"/>
</svg>
