<svg width="21" height="20" viewBox="0 0 21 20" fill="none" xmlns="http://www.w3.org/2000/svg">
<path d="M14.6211 17.7084H6.28776C3.24609 17.7084 1.49609 15.9584 1.49609 12.9167V7.08335C1.49609 4.04169 3.24609 2.29169 6.28776 2.29169H14.6211C17.6628 2.29169 19.4128 4.04169 19.4128 7.08335V12.9167C19.4128 15.9584 17.6628 17.7084 14.6211 17.7084ZM6.28776 3.54169C3.90443 3.54169 2.74609 4.70002 2.74609 7.08335V12.9167C2.74609 15.3 3.90443 16.4584 6.28776 16.4584H14.6211C17.0044 16.4584 18.1628 15.3 18.1628 12.9167V7.08335C18.1628 4.70002 17.0044 3.54169 14.6211 3.54169H6.28776Z" fill="#454748"/>
<path d="M10.4541 10.725C9.75408 10.725 9.04575 10.5083 8.50408 10.0666L5.89574 7.98331C5.62908 7.76664 5.57908 7.37497 5.79575 7.10831C6.01242 6.84164 6.40408 6.79164 6.67075 7.00831L9.27908 9.09164C9.91241 9.59998 10.9874 9.59998 11.6207 9.09164L14.2291 7.00831C14.4957 6.79164 14.8957 6.83331 15.1041 7.10831C15.3207 7.37497 15.2791 7.77498 15.0041 7.98331L12.3957 10.0666C11.8624 10.5083 11.1541 10.725 10.4541 10.725Z" fill="#454748"/>
</svg>
