<svg width="26" height="26" viewBox="0 0 26 26" fill="none" xmlns="http://www.w3.org/2000/svg">
<path d="M22.75 6.47831C19.1425 6.12081 15.5133 5.93665 11.895 5.93665C9.75 5.93665 7.605 6.04498 5.46 6.26165L3.25 6.47831" fill="#313131"/>
<path d="M22.75 6.47831C19.1425 6.12081 15.5133 5.93665 11.895 5.93665C9.75 5.93665 7.605 6.04498 5.46 6.26165L3.25 6.47831" stroke="#313131" stroke-width="1.5" stroke-linecap="round" stroke-linejoin="round"/>
<path d="M9.20703 5.38419L9.44536 3.96502C9.6187 2.93585 9.7487 2.16669 11.5795 2.16669H14.4179C16.2487 2.16669 16.3895 2.97919 16.552 3.97585L16.7904 5.38419" stroke="#313131" stroke-width="1.5" stroke-linecap="round" stroke-linejoin="round"/>
<path d="M20.4198 9.90167L19.7156 20.8108C19.5965 22.5117 19.499 23.8333 16.4765 23.8333H9.52146C6.49896 23.8333 6.40146 22.5117 6.28229 20.8108L5.57812 9.90167" stroke="#313131" stroke-width="1.5" stroke-linecap="round" stroke-linejoin="round"/>
<path d="M11.1914 17.875H14.7989" stroke="#313131" stroke-width="1.5" stroke-linecap="round" stroke-linejoin="round"/>
<path d="M10.293 13.5417H15.7096" stroke="#313131" stroke-width="1.5" stroke-linecap="round" stroke-linejoin="round"/>
</svg>
